<?xml version="1.0" encoding="UTF-8" standalone="no"?>
<!-- Created with Inkscape (http://www.inkscape.org/) -->

<svg
   xmlns:dc="http://purl.org/dc/elements/1.1/"
   xmlns:cc="http://creativecommons.org/ns#"
   xmlns:rdf="http://www.w3.org/1999/02/22-rdf-syntax-ns#"
   xmlns:svg="http://www.w3.org/2000/svg"
   xmlns="http://www.w3.org/2000/svg"
   xmlns:sodipodi="http://sodipodi.sourceforge.net/DTD/sodipodi-0.dtd"
   xmlns:inkscape="http://www.inkscape.org/namespaces/inkscape"
   width="210mm"
   height="210mm"
   viewBox="0 0 210 210"
   version="1.1"
   id="svg8"
   inkscape:version="0.92.4 (5da689c313, 2019-01-14)"
   sodipodi:docname="remove-button.svg">
  <defs
     id="defs2" />
  <sodipodi:namedview
     id="base"
     pagecolor="#ffffff"
     bordercolor="#666666"
     borderopacity="1.0"
     inkscape:pageopacity="0.0"
     inkscape:pageshadow="2"
     inkscape:zoom="1"
     inkscape:cx="272.86675"
     inkscape:cy="357.4671"
     inkscape:document-units="mm"
     inkscape:current-layer="layer1"
     showgrid="false"
     inkscape:snap-object-midpoints="true"
     inkscape:window-width="3840"
     inkscape:window-height="2019"
     inkscape:window-x="-14"
     inkscape:window-y="-14"
     inkscape:window-maximized="1" />
  <metadata
     id="metadata5">
    <rdf:RDF>
      <cc:Work
         rdf:about="">
        <dc:format>image/svg+xml</dc:format>
        <dc:type
           rdf:resource="http://purl.org/dc/dcmitype/StillImage" />
        <dc:title></dc:title>
      </cc:Work>
    </rdf:RDF>
  </metadata>
  <g
     inkscape:label="Layer 1"
     inkscape:groupmode="layer"
     id="layer1"
     transform="translate(0,-87)">
    <g
       id="g839"
       transform="matrix(1.1764844,0,0,1.1779964,-17.509658,28.419842)">
      <path
         id="path4561"
         d="m 104.46081,51.61752 a 87.494437,87.494437 0 0 0 -87.494404,87.4944 87.494437,87.494437 0 0 0 87.494404,87.4944 87.494437,87.494437 0 0 0 87.4944,-87.4944 87.494437,87.494437 0 0 0 -87.4944,-87.4944 z M 62.913471,96.300064 H 81.080839 L 105.22717,128.64848 129.4505,96.300064 h 16.86408 l -33.65169,42.160216 33.65169,43.4635 H 128.14722 L 103.84741,149.03896 79.394636,181.92378 H 62.60703 l 33.421733,-42.69714 z"
         style="fill:#ffffff;stroke:#000000;stroke-width:0;stroke-miterlimit:4;stroke-dasharray:none;stroke-opacity:0.21864953;paint-order:markers stroke fill"
         inkscape:connector-curvature="0" />
      <path
         inkscape:connector-curvature="0"
         style="fill:none;stroke:#000000;stroke-width:3.4000001;stroke-miterlimit:0;stroke-dasharray:none;stroke-opacity:0.21864953;paint-order:normal"
         d="m 191.95525,139.11188 a 87.494438,87.494438 0 0 0 -87.49444,-87.494441 87.494438,87.494438 0 0 0 -87.49444,87.494441 87.494438,87.494438 0 0 0 87.49444,87.49444 87.494438,87.494438 0 0 0 87.49444,-87.49444 z"
         id="path4570" />
    </g>
    <flowRoot
       xml:space="preserve"
       id="flowRoot3727"
       style="font-style:normal;font-weight:normal;font-size:40px;line-height:1.25;font-family:sans-serif;letter-spacing:0px;word-spacing:0px;fill:#000000;fill-opacity:1;stroke:none"><flowRegion
         id="flowRegion3729"><rect
           id="rect3731"
           width="236"
           height="100"
           x="-301"
           y="400.51968" /></flowRegion><flowPara
         id="flowPara3733" /></flowRoot>  </g>
</svg>
